<svg width="16" height="12" viewBox="0 0 16 12" fill="none" xmlns="http://www.w3.org/2000/svg">
<path d="M15.6476 5.6745C15.7122 5.82985 15.7292 6.00092 15.6964 6.16596C15.6636 6.33099 15.5824 6.48253 15.4632 6.60129L11.0537 11.0108C10.8942 11.1702 10.6779 11.2598 10.4524 11.2598C10.2269 11.2598 10.0106 11.1702 9.85109 11.0108C9.69162 10.8513 9.60202 10.635 9.60203 10.4095C9.60203 10.184 9.69162 9.96766 9.85109 9.80819L12.8095 6.84983L1.23255 6.84982C1.11843 6.85385 1.00466 6.83485 0.898039 6.79396C0.791417 6.75307 0.694123 6.69112 0.611963 6.6118C0.529801 6.53249 0.464458 6.43745 0.419828 6.33233C0.375199 6.22722 0.352199 6.11419 0.352199 6C0.352199 5.8858 0.375199 5.77278 0.419829 5.66766C0.464458 5.56255 0.529802 5.4675 0.611963 5.38819C0.694123 5.30888 0.791417 5.24693 0.898039 5.20603C1.00466 5.16514 1.11843 5.14614 1.23255 5.15017L12.8095 5.15017L9.85109 2.19181C9.69162 2.03233 9.60203 1.81604 9.60203 1.59051C9.60203 1.36499 9.69162 1.14869 9.85109 0.989221C10.0106 0.829748 10.2269 0.740158 10.4524 0.740158C10.6779 0.740158 10.8942 0.829748 11.0537 0.989221L15.4632 5.39871C15.5449 5.48048 15.6067 5.57428 15.6476 5.6745Z" fill="#1195FF"/>
</svg>
