<svg width="27" height="20" viewBox="0 0 27 20" fill="none" xmlns="http://www.w3.org/2000/svg">
<path d="M1.09112 7.91057C0.509598 8.07972 0.0970118 8.47589 0.0146643 8.94345C-0.0668342 9.41166 0.195489 9.87536 0.698912 10.1526L6.21025 13.1907L25.7852 1.52356L8.47608 14.4423L16.0104 18.5957C16.4893 18.8594 17.1081 18.9385 17.6778 18.8079C18.2466 18.6767 18.6999 18.3494 18.9036 17.9281L26.9635 1.2155C27.045 1.04571 26.9873 0.855983 26.8175 0.729285C26.6486 0.602587 26.3981 0.562712 26.174 0.627669L1.09112 7.91057Z" fill="#1195FF"/>
<path d="M4.90118 14.2012L4.94788 14.3948L6.01754 18.8253C6.09734 19.1546 6.38768 19.4305 6.79178 19.5637C7.19588 19.6961 7.66195 19.6678 8.03209 19.4871C9.52198 18.7591 11.4678 17.7931 11.4151 17.7365L4.90118 14.2012Z" fill="#1195FF"/>
</svg>
