<svg width="23" height="20" viewBox="0 0 23 20" fill="none" xmlns="http://www.w3.org/2000/svg">
<path d="M11.9507 2.61172C11.8089 2.47769 11.6941 2.31547 11.6132 2.13457C11.5322 1.95367 11.4867 1.75773 11.4793 1.55824C11.4719 1.35875 11.5027 1.15971 11.5699 0.972805C11.6372 0.785898 11.7395 0.614878 11.8709 0.469771C12.0023 0.324664 12.1602 0.20839 12.3352 0.127763C12.5102 0.0471366 12.6989 0.0037804 12.8902 0.000236377C13.0815 -0.00330764 13.2716 0.0330318 13.4492 0.107124C13.6269 0.181217 13.7886 0.291571 13.9249 0.431719L22.55 8.93172C22.6922 9.07191 22.8054 9.24089 22.8827 9.42831C22.9601 9.61573 23 9.81765 23 10.0217C23 10.2258 22.9601 10.4277 22.8827 10.6151C22.8054 10.8025 22.6922 10.9715 22.55 11.1117L13.9249 19.6117C13.6462 19.8751 13.2797 20.0141 12.904 19.9989C12.5282 19.9836 12.1732 19.8154 11.915 19.5302C11.6567 19.2451 11.5158 18.8657 11.5225 18.4734C11.5292 18.0811 11.6829 17.7071 11.9507 17.4317L17.948 11.5217H1.43753C1.05627 11.5217 0.690631 11.3637 0.421042 11.0824C0.151453 10.8011 0 10.4195 0 10.0217C0 9.62389 0.151453 9.24236 0.421042 8.96106C0.690631 8.67975 1.05627 8.52172 1.43753 8.52172H17.948L11.9507 2.61172Z" fill="white"/>
</svg>
